<mxfile host="app.diagrams.net" agent="Mozilla/5.0 (Macintosh; Intel Mac OS X 10_15_7) AppleWebKit/537.36 (KHTML, like Gecko) Chrome/138.0.0.0 Safari/537.36" version="28.0.6">
  <diagram name="PÃ¡gina-1" id="LK5u9Nmmqx4tY2qhEFly">
    <mxGraphModel dx="867" dy="506" grid="1" gridSize="10" guides="1" tooltips="1" connect="1" arrows="1" fold="1" page="1" pageScale="1" pageWidth="827" pageHeight="1169" math="0" shadow="0">
      <root>
        <mxCell id="0" />
        <mxCell id="1" parent="0" />
        <mxCell id="QiXp1r3fTWadhX4fVjTS-57" value="" style="rounded=0;whiteSpace=wrap;html=1;" vertex="1" parent="1">
          <mxGeometry x="170" y="230" width="650" height="370" as="geometry" />
        </mxCell>
        <mxCell id="QiXp1r3fTWadhX4fVjTS-56" style="edgeStyle=orthogonalEdgeStyle;rounded=0;orthogonalLoop=1;jettySize=auto;html=1;entryX=0;entryY=0.5;entryDx=0;entryDy=0;" edge="1" parent="1" source="QiXp1r3fTWadhX4fVjTS-1" target="QiXp1r3fTWadhX4fVjTS-41">
          <mxGeometry relative="1" as="geometry" />
        </mxCell>
        <mxCell id="QiXp1r3fTWadhX4fVjTS-1" value="" style="rounded=0;whiteSpace=wrap;html=1;fillColor=light-dark(#FFFFFF,#66B2FF);" vertex="1" parent="1">
          <mxGeometry x="180" y="240" width="320" height="350" as="geometry" />
        </mxCell>
        <mxCell id="QiXp1r3fTWadhX4fVjTS-2" value="&lt;b&gt;UI LAYER (Capa de UI)&lt;/b&gt;" style="text;html=1;align=center;verticalAlign=middle;resizable=0;points=[];autosize=1;strokeColor=none;fillColor=none;" vertex="1" parent="1">
          <mxGeometry x="265" y="240" width="150" height="30" as="geometry" />
        </mxCell>
        <mxCell id="QiXp1r3fTWadhX4fVjTS-26" style="edgeStyle=orthogonalEdgeStyle;rounded=0;orthogonalLoop=1;jettySize=auto;html=1;exitX=1;exitY=0.5;exitDx=0;exitDy=0;" edge="1" parent="1" source="QiXp1r3fTWadhX4fVjTS-5" target="QiXp1r3fTWadhX4fVjTS-19">
          <mxGeometry relative="1" as="geometry" />
        </mxCell>
        <mxCell id="QiXp1r3fTWadhX4fVjTS-5" value="LoginScreen" style="rounded=1;whiteSpace=wrap;html=1;fillColor=light-dark(#FFFFFF,#8796D9);" vertex="1" parent="1">
          <mxGeometry x="190" y="290" width="120" height="40" as="geometry" />
        </mxCell>
        <mxCell id="QiXp1r3fTWadhX4fVjTS-29" style="edgeStyle=orthogonalEdgeStyle;rounded=0;orthogonalLoop=1;jettySize=auto;html=1;exitX=1;exitY=0.5;exitDx=0;exitDy=0;entryX=0;entryY=0.5;entryDx=0;entryDy=0;" edge="1" parent="1" source="QiXp1r3fTWadhX4fVjTS-6" target="QiXp1r3fTWadhX4fVjTS-20">
          <mxGeometry relative="1" as="geometry" />
        </mxCell>
        <mxCell id="QiXp1r3fTWadhX4fVjTS-6" value="TaskListScreen" style="rounded=1;whiteSpace=wrap;html=1;fillColor=light-dark(#FFFFFF,#8796D9);" vertex="1" parent="1">
          <mxGeometry x="190" y="338" width="120" height="40" as="geometry" />
        </mxCell>
        <mxCell id="QiXp1r3fTWadhX4fVjTS-33" style="edgeStyle=orthogonalEdgeStyle;rounded=0;orthogonalLoop=1;jettySize=auto;html=1;exitX=1;exitY=0.5;exitDx=0;exitDy=0;" edge="1" parent="1" source="QiXp1r3fTWadhX4fVjTS-7" target="QiXp1r3fTWadhX4fVjTS-21">
          <mxGeometry relative="1" as="geometry" />
        </mxCell>
        <mxCell id="QiXp1r3fTWadhX4fVjTS-7" value="TaskEntryScreen" style="rounded=1;whiteSpace=wrap;html=1;fillColor=light-dark(#FFFFFF,#8796D9);" vertex="1" parent="1">
          <mxGeometry x="190" y="386" width="120" height="40" as="geometry" />
        </mxCell>
        <mxCell id="QiXp1r3fTWadhX4fVjTS-35" style="edgeStyle=orthogonalEdgeStyle;rounded=0;orthogonalLoop=1;jettySize=auto;html=1;exitX=1;exitY=0.5;exitDx=0;exitDy=0;entryX=0;entryY=0.5;entryDx=0;entryDy=0;" edge="1" parent="1" source="QiXp1r3fTWadhX4fVjTS-8" target="QiXp1r3fTWadhX4fVjTS-22">
          <mxGeometry relative="1" as="geometry" />
        </mxCell>
        <mxCell id="QiXp1r3fTWadhX4fVjTS-8" value="TaskDetailScreen" style="rounded=1;whiteSpace=wrap;html=1;fillColor=light-dark(#FFFFFF,#8796D9);" vertex="1" parent="1">
          <mxGeometry x="190" y="434" width="120" height="40" as="geometry" />
        </mxCell>
        <mxCell id="QiXp1r3fTWadhX4fVjTS-37" style="edgeStyle=orthogonalEdgeStyle;rounded=0;orthogonalLoop=1;jettySize=auto;html=1;exitX=1;exitY=0.5;exitDx=0;exitDy=0;entryX=0;entryY=0.5;entryDx=0;entryDy=0;" edge="1" parent="1" source="QiXp1r3fTWadhX4fVjTS-11" target="QiXp1r3fTWadhX4fVjTS-23">
          <mxGeometry relative="1" as="geometry" />
        </mxCell>
        <mxCell id="QiXp1r3fTWadhX4fVjTS-11" value="ProfileScreen" style="rounded=1;whiteSpace=wrap;html=1;fillColor=light-dark(#FFFFFF,#8796D9);" vertex="1" parent="1">
          <mxGeometry x="190" y="482" width="120" height="40" as="geometry" />
        </mxCell>
        <mxCell id="QiXp1r3fTWadhX4fVjTS-39" style="edgeStyle=orthogonalEdgeStyle;rounded=0;orthogonalLoop=1;jettySize=auto;html=1;exitX=1;exitY=0.5;exitDx=0;exitDy=0;" edge="1" parent="1" source="QiXp1r3fTWadhX4fVjTS-12" target="QiXp1r3fTWadhX4fVjTS-24">
          <mxGeometry relative="1" as="geometry" />
        </mxCell>
        <mxCell id="QiXp1r3fTWadhX4fVjTS-12" value="SearchScreen" style="rounded=1;whiteSpace=wrap;html=1;fillColor=light-dark(#FFFFFF,#8796D9);" vertex="1" parent="1">
          <mxGeometry x="190" y="530" width="120" height="40" as="geometry" />
        </mxCell>
        <mxCell id="QiXp1r3fTWadhX4fVjTS-27" style="edgeStyle=orthogonalEdgeStyle;rounded=0;orthogonalLoop=1;jettySize=auto;html=1;exitX=0;exitY=0.5;exitDx=0;exitDy=0;" edge="1" parent="1" source="QiXp1r3fTWadhX4fVjTS-19">
          <mxGeometry relative="1" as="geometry">
            <mxPoint x="310" y="310.4" as="targetPoint" />
          </mxGeometry>
        </mxCell>
        <mxCell id="QiXp1r3fTWadhX4fVjTS-19" value="&lt;code&gt;LoginViewModel&lt;/code&gt;" style="rounded=1;whiteSpace=wrap;html=1;fillColor=light-dark(#FFFFFF,#8796D9);" vertex="1" parent="1">
          <mxGeometry x="370" y="290" width="120" height="40" as="geometry" />
        </mxCell>
        <mxCell id="QiXp1r3fTWadhX4fVjTS-30" style="edgeStyle=orthogonalEdgeStyle;rounded=0;orthogonalLoop=1;jettySize=auto;html=1;exitX=0;exitY=0.5;exitDx=0;exitDy=0;entryX=1;entryY=0.5;entryDx=0;entryDy=0;" edge="1" parent="1" source="QiXp1r3fTWadhX4fVjTS-20" target="QiXp1r3fTWadhX4fVjTS-6">
          <mxGeometry relative="1" as="geometry" />
        </mxCell>
        <mxCell id="QiXp1r3fTWadhX4fVjTS-20" value="TaskListViewModel" style="rounded=1;whiteSpace=wrap;html=1;fillColor=light-dark(#FFFFFF,#8796D9);" vertex="1" parent="1">
          <mxGeometry x="370" y="338" width="120" height="40" as="geometry" />
        </mxCell>
        <mxCell id="QiXp1r3fTWadhX4fVjTS-34" style="edgeStyle=orthogonalEdgeStyle;rounded=0;orthogonalLoop=1;jettySize=auto;html=1;exitX=0;exitY=0.5;exitDx=0;exitDy=0;" edge="1" parent="1" source="QiXp1r3fTWadhX4fVjTS-21">
          <mxGeometry relative="1" as="geometry">
            <mxPoint x="310" y="406.4" as="targetPoint" />
          </mxGeometry>
        </mxCell>
        <mxCell id="QiXp1r3fTWadhX4fVjTS-21" value="TaskEntryViewModel" style="rounded=1;whiteSpace=wrap;html=1;fillColor=light-dark(#FFFFFF,#8796D9);" vertex="1" parent="1">
          <mxGeometry x="370" y="386" width="120" height="40" as="geometry" />
        </mxCell>
        <mxCell id="QiXp1r3fTWadhX4fVjTS-36" style="edgeStyle=orthogonalEdgeStyle;rounded=0;orthogonalLoop=1;jettySize=auto;html=1;exitX=0;exitY=0.5;exitDx=0;exitDy=0;entryX=1;entryY=0.5;entryDx=0;entryDy=0;" edge="1" parent="1" source="QiXp1r3fTWadhX4fVjTS-22" target="QiXp1r3fTWadhX4fVjTS-8">
          <mxGeometry relative="1" as="geometry" />
        </mxCell>
        <mxCell id="QiXp1r3fTWadhX4fVjTS-22" value="TaskDetailViewModel" style="rounded=1;whiteSpace=wrap;html=1;fillColor=light-dark(#FFFFFF,#8796D9);" vertex="1" parent="1">
          <mxGeometry x="370" y="434" width="120" height="40" as="geometry" />
        </mxCell>
        <mxCell id="QiXp1r3fTWadhX4fVjTS-38" style="edgeStyle=orthogonalEdgeStyle;rounded=0;orthogonalLoop=1;jettySize=auto;html=1;exitX=0;exitY=0.5;exitDx=0;exitDy=0;entryX=1;entryY=0.5;entryDx=0;entryDy=0;" edge="1" parent="1" source="QiXp1r3fTWadhX4fVjTS-23" target="QiXp1r3fTWadhX4fVjTS-11">
          <mxGeometry relative="1" as="geometry" />
        </mxCell>
        <mxCell id="QiXp1r3fTWadhX4fVjTS-23" value="ProfileViewModel" style="rounded=1;whiteSpace=wrap;html=1;fillColor=light-dark(#FFFFFF,#8796D9);" vertex="1" parent="1">
          <mxGeometry x="370" y="482" width="120" height="40" as="geometry" />
        </mxCell>
        <mxCell id="QiXp1r3fTWadhX4fVjTS-40" style="edgeStyle=orthogonalEdgeStyle;rounded=0;orthogonalLoop=1;jettySize=auto;html=1;exitX=0;exitY=0.5;exitDx=0;exitDy=0;" edge="1" parent="1" source="QiXp1r3fTWadhX4fVjTS-24">
          <mxGeometry relative="1" as="geometry">
            <mxPoint x="310" y="550.4000000000001" as="targetPoint" />
          </mxGeometry>
        </mxCell>
        <mxCell id="QiXp1r3fTWadhX4fVjTS-24" value="SearchViewModel" style="rounded=1;whiteSpace=wrap;html=1;fillColor=light-dark(#FFFFFF,#8796D9);" vertex="1" parent="1">
          <mxGeometry x="370" y="530" width="120" height="40" as="geometry" />
        </mxCell>
        <mxCell id="QiXp1r3fTWadhX4fVjTS-41" value="" style="rounded=0;whiteSpace=wrap;html=1;fillColor=#008a00;fontColor=#ffffff;strokeColor=#005700;" vertex="1" parent="1">
          <mxGeometry x="540" y="240" width="270" height="350" as="geometry" />
        </mxCell>
        <mxCell id="QiXp1r3fTWadhX4fVjTS-42" value="&lt;b&gt;DATA LAYER(Capa de datos)&lt;/b&gt;" style="text;html=1;align=center;verticalAlign=middle;resizable=0;points=[];autosize=1;strokeColor=none;fillColor=none;" vertex="1" parent="1">
          <mxGeometry x="575" y="240" width="190" height="30" as="geometry" />
        </mxCell>
        <mxCell id="QiXp1r3fTWadhX4fVjTS-50" value="" style="edgeStyle=orthogonalEdgeStyle;rounded=0;orthogonalLoop=1;jettySize=auto;html=1;" edge="1" parent="1" source="QiXp1r3fTWadhX4fVjTS-43" target="QiXp1r3fTWadhX4fVjTS-47">
          <mxGeometry relative="1" as="geometry" />
        </mxCell>
        <mxCell id="QiXp1r3fTWadhX4fVjTS-43" value="TasksRespository" style="rounded=1;whiteSpace=wrap;html=1;fillColor=light-dark(#FFFFFF,#3FD9A7);" vertex="1" parent="1">
          <mxGeometry x="610" y="310" width="120" height="40" as="geometry" />
        </mxCell>
        <mxCell id="QiXp1r3fTWadhX4fVjTS-45" value="&lt;font style=&quot;font-size: 10px;&quot;&gt;Contiene todo lo que el usuario ve e interactÃºa.&lt;/font&gt;" style="text;html=1;align=center;verticalAlign=middle;resizable=0;points=[];autosize=1;strokeColor=none;fillColor=none;" vertex="1" parent="1">
          <mxGeometry x="225" y="260" width="230" height="30" as="geometry" />
        </mxCell>
        <mxCell id="QiXp1r3fTWadhX4fVjTS-46" value="&lt;font style=&quot;font-size: 10px;&quot;&gt;Maneja de dÃ³nde vienen los datos y cÃ³mo se guardan.&lt;/font&gt;" style="text;html=1;align=center;verticalAlign=middle;resizable=0;points=[];autosize=1;strokeColor=none;fillColor=none;" vertex="1" parent="1">
          <mxGeometry x="540" y="260" width="270" height="30" as="geometry" />
        </mxCell>
        <mxCell id="QiXp1r3fTWadhX4fVjTS-51" style="edgeStyle=orthogonalEdgeStyle;rounded=0;orthogonalLoop=1;jettySize=auto;html=1;" edge="1" parent="1" source="QiXp1r3fTWadhX4fVjTS-47" target="QiXp1r3fTWadhX4fVjTS-48">
          <mxGeometry relative="1" as="geometry" />
        </mxCell>
        <mxCell id="QiXp1r3fTWadhX4fVjTS-52" style="edgeStyle=orthogonalEdgeStyle;rounded=0;orthogonalLoop=1;jettySize=auto;html=1;" edge="1" parent="1" source="QiXp1r3fTWadhX4fVjTS-47" target="QiXp1r3fTWadhX4fVjTS-49">
          <mxGeometry relative="1" as="geometry" />
        </mxCell>
        <mxCell id="QiXp1r3fTWadhX4fVjTS-47" value="Room Database (DataSource)" style="rounded=1;whiteSpace=wrap;html=1;fillColor=light-dark(#FFFFFF,#3FD9A7);" vertex="1" parent="1">
          <mxGeometry x="610" y="386" width="120" height="40" as="geometry" />
        </mxCell>
        <mxCell id="QiXp1r3fTWadhX4fVjTS-48" value="UserDao" style="rounded=1;whiteSpace=wrap;html=1;fillColor=light-dark(#FFFFFF,#3FD9A7);" vertex="1" parent="1">
          <mxGeometry x="560" y="482" width="60" height="40" as="geometry" />
        </mxCell>
        <mxCell id="QiXp1r3fTWadhX4fVjTS-49" value="TaskDao" style="rounded=1;whiteSpace=wrap;html=1;fillColor=light-dark(#FFFFFF,#3FD9A7);" vertex="1" parent="1">
          <mxGeometry x="720" y="482" width="60" height="40" as="geometry" />
        </mxCell>
      </root>
    </mxGraphModel>
  </diagram>
</mxfile>
